<svg width="436" height="468" viewBox="0 0 436 468" fill="none" xmlns="http://www.w3.org/2000/svg">
<path d="M29.2179 404.891C29.1823 404.926 29.1823 404.926 29.1468 404.962C28.0452 406.205 26.9436 407.52 25.8775 408.799C25.309 409.439 25.4156 410.399 26.0552 410.896C26.6949 411.465 27.6543 411.358 28.1518 410.718C29.2179 409.439 30.3195 408.195 31.4211 406.952C31.9896 406.312 31.9186 405.388 31.2789 404.82C30.6748 404.286 29.7864 404.322 29.2179 404.891Z" fill="#4691F2"/>
<path d="M256.502 128.354C255.863 128.994 255.223 129.705 254.583 130.415C254.015 131.055 254.121 132.014 254.761 132.512C255.401 133.08 256.36 132.974 256.858 132.334C258.954 129.882 261.406 127.786 264 126.186C264.711 125.76 264.924 124.836 264.498 124.125C264.071 123.415 263.147 123.202 262.437 123.628C260.376 124.907 258.35 126.506 256.502 128.354ZM249.431 138.766C249.289 138.908 249.218 139.05 249.111 139.228C247.69 142.497 246.837 145.909 246.481 149.32C246.41 150.173 246.979 150.884 247.832 150.955C248.684 151.026 249.395 150.457 249.466 149.604C249.786 146.513 250.568 143.457 251.883 140.436C252.202 139.69 251.847 138.766 251.101 138.446C250.497 138.197 249.857 138.34 249.431 138.766ZM271.498 120.394C271.178 120.714 270.965 121.212 271.072 121.745C271.249 122.562 271.996 123.095 272.813 122.988C275.905 122.455 279.103 122.384 282.301 122.811C283.118 122.917 283.9 122.349 284.007 121.531C284.113 120.714 283.545 119.932 282.727 119.826C279.209 119.364 275.691 119.399 272.316 120.003C271.996 120.039 271.711 120.181 271.498 120.394ZM247.796 158.31C247.405 158.701 247.263 159.27 247.405 159.767C248.258 162.752 249.679 165.524 251.563 167.976C251.847 168.331 252.131 168.687 252.416 169.042C252.984 169.682 253.908 169.753 254.548 169.184C255.152 168.651 255.259 167.692 254.69 167.052C254.441 166.732 254.157 166.448 253.944 166.093C252.309 163.961 251.065 161.509 250.284 158.879C250.035 158.062 249.218 157.6 248.4 157.849C248.187 157.991 247.974 158.133 247.796 158.31ZM291.043 122.882C290.901 123.024 290.794 123.202 290.723 123.344C290.403 124.09 290.758 125.014 291.505 125.334C294.419 126.542 297.19 128.176 299.855 130.131C300.495 130.628 301.49 130.486 301.952 129.811C302.45 129.171 302.307 128.176 301.632 127.715C298.825 125.618 295.804 123.877 292.713 122.562C292.144 122.349 291.469 122.455 291.043 122.882ZM133.585 297.112C133.017 297.68 132.981 298.64 133.55 299.208C134.154 299.812 135.078 299.812 135.682 299.279C137.921 297.112 140.444 294.944 143.073 292.741C143.713 292.243 143.82 291.284 143.286 290.609C142.789 289.969 141.83 289.863 141.154 290.396C138.454 292.599 135.931 294.838 133.585 297.112ZM126.691 304.29C126.656 304.325 126.656 304.325 126.62 304.361C124.346 306.991 122.25 309.727 120.437 312.392C119.975 313.067 120.153 314.027 120.828 314.489C121.503 314.951 122.463 314.773 122.925 314.098C124.701 311.468 126.727 308.874 128.895 306.351C129.463 305.711 129.357 304.752 128.753 304.219C128.113 303.721 127.225 303.757 126.691 304.29ZM49.7218 383.036C49.1532 383.605 49.1177 384.564 49.7218 385.169C50.3259 385.773 51.2498 385.773 51.8539 385.169C54.1992 382.823 56.6157 380.549 59.0321 378.275C59.6006 377.706 59.6362 376.747 59.1031 376.143C58.499 375.538 57.5751 375.538 56.971 376.071C54.5546 378.346 52.1027 380.656 49.7218 383.036ZM42.6858 390.143C40.3404 392.56 38.0306 395.012 35.7919 397.464C35.2233 398.103 35.2944 399.027 35.863 399.596C36.5026 400.164 37.4265 400.093 37.9951 399.525C40.1983 397.108 42.5081 394.656 44.8179 392.276C45.422 391.671 45.3865 390.712 44.7468 390.143C44.2493 389.575 43.2899 389.539 42.6858 390.143ZM149.008 284.39C148.51 284.888 148.439 285.74 148.83 286.345C149.292 287.02 150.287 287.162 150.927 286.664C152.312 285.634 153.769 284.603 155.262 283.608C156.541 282.755 157.785 281.867 159.1 281.05C159.775 280.588 159.988 279.664 159.526 278.989C159.064 278.314 158.14 278.1 157.465 278.562C156.15 279.451 154.871 280.304 153.592 281.156C152.064 282.187 150.607 283.217 149.221 284.248C149.114 284.284 149.043 284.355 149.008 284.39ZM260.198 173.271C260.091 173.378 259.985 173.484 259.949 173.591C259.558 174.337 259.807 175.225 260.553 175.616C263.503 177.215 266.808 178.459 270.326 179.205C271.143 179.383 271.96 178.85 272.138 178.033C272.316 177.215 271.783 176.398 270.965 176.22C267.731 175.545 264.711 174.444 262.01 172.951C261.371 172.667 260.66 172.809 260.198 173.271ZM64.2558 369.355C63.6872 369.924 63.6517 370.812 64.1847 371.416C64.7533 372.056 65.7127 372.091 66.3168 371.558C68.8043 369.355 71.2918 367.152 73.8148 364.984C74.4544 364.416 74.5255 363.492 73.9569 362.852C73.3884 362.213 72.4644 362.142 71.8248 362.71C69.3018 364.878 66.7432 367.081 64.2913 369.32C64.2913 369.32 64.2913 369.32 64.2558 369.355ZM79.4649 356.42C78.9319 356.953 78.8608 357.806 79.3583 358.446C79.8558 359.086 80.8153 359.192 81.4904 358.659C83.2672 357.238 85.0795 355.781 86.8563 354.359C87.6381 353.72 88.4909 353.08 89.3082 352.476C89.9479 351.978 90.1255 351.019 89.5925 350.344C89.095 349.704 88.1356 349.527 87.4604 350.06C86.6075 350.699 85.8257 351.339 84.9729 351.978C83.1961 353.4 81.3483 354.821 79.5715 356.314C79.5715 356.314 79.536 356.349 79.4649 356.42ZM115.569 320.814C115.462 320.92 115.391 321.063 115.285 321.24C114.538 322.768 113.828 324.332 113.188 325.895C112.548 327.459 111.98 329.094 111.518 330.764C111.269 331.581 111.731 332.398 112.548 332.647C113.366 332.896 114.183 332.434 114.432 331.617C114.894 330.089 115.427 328.49 116.031 327.033C116.599 325.54 117.31 324.048 118.021 322.555C118.412 321.809 118.092 320.921 117.346 320.53C116.706 320.245 115.995 320.387 115.569 320.814ZM165.638 273.374C165.141 273.872 165.034 274.618 165.425 275.222C165.851 275.933 166.775 276.146 167.486 275.719C170.293 273.978 173.172 272.308 176.05 270.709C176.796 270.318 177.045 269.359 176.619 268.648C176.228 267.902 175.268 267.653 174.558 268.079C171.644 269.714 168.73 271.42 165.887 273.125C165.816 273.196 165.709 273.303 165.638 273.374ZM95.3848 344.338C94.8873 344.836 94.7807 345.653 95.2071 346.222C95.6691 346.897 96.6285 347.075 97.3037 346.613C100.218 344.623 102.954 342.881 105.655 341.318C106.365 340.891 106.614 340.003 106.223 339.257C105.797 338.546 104.908 338.297 104.162 338.688C101.355 340.287 98.583 342.064 95.6335 344.09C95.5269 344.196 95.4559 344.267 95.3848 344.338ZM306.963 134.679C306.43 135.212 306.358 136.136 306.892 136.741C309.024 139.228 310.8 141.929 312.257 144.736C312.648 145.482 313.537 145.802 314.283 145.411C315.029 145.02 315.349 144.132 314.958 143.386C313.43 140.365 311.476 137.487 309.237 134.822C308.668 134.182 307.744 134.111 307.105 134.679C307.034 134.608 306.998 134.644 306.963 134.679ZM183.051 263.637C182.589 264.099 182.482 264.775 182.766 265.414C183.157 266.16 184.046 266.48 184.792 266.089C187.741 264.561 190.726 263.14 193.747 261.754C194.529 261.399 194.848 260.51 194.493 259.729C194.138 258.947 193.249 258.627 192.467 258.982C189.447 260.368 186.391 261.861 183.442 263.389C183.335 263.424 183.157 263.531 183.051 263.637ZM112.726 334.459C112.3 334.886 112.157 335.526 112.406 336.13C112.726 336.876 113.65 337.231 114.396 336.911C117.488 335.526 120.579 334.424 123.564 333.571C124.346 333.358 124.844 332.505 124.63 331.723C124.417 330.941 123.564 330.444 122.783 330.657C119.655 331.51 116.422 332.683 113.188 334.14C112.975 334.211 112.868 334.317 112.726 334.459ZM109.954 339.932C109.706 340.181 109.563 340.465 109.528 340.856C109.173 344.267 109.101 347.75 109.35 351.126C109.421 351.978 110.168 352.583 110.949 352.511C111.802 352.44 112.371 351.73 112.335 350.912C112.122 347.714 112.122 344.445 112.513 341.211C112.619 340.394 112.015 339.648 111.198 339.541C110.701 339.399 110.274 339.612 109.954 339.932ZM201.209 255.287C200.783 255.713 200.641 256.353 200.889 256.957C201.209 257.703 202.098 258.094 202.844 257.774C203.981 257.277 205.118 256.85 206.255 256.353C208.139 255.606 210.022 254.86 212.083 254.078C212.865 253.794 213.256 252.906 212.971 252.124C212.687 251.342 211.799 250.951 211.017 251.236C208.956 252.017 207.001 252.764 205.118 253.51C203.945 253.972 202.808 254.469 201.671 254.896C201.493 255.002 201.351 255.144 201.209 255.287ZM279.494 177.5C279.209 177.784 279.032 178.175 279.067 178.637C279.103 179.454 279.814 180.094 280.631 180.058C282.692 179.987 284.717 179.738 286.707 179.383C288.058 179.099 289.408 178.814 290.794 178.424C291.576 178.21 292.073 177.357 291.86 176.576C291.647 175.794 290.794 175.296 290.012 175.51C288.733 175.865 287.418 176.185 286.139 176.398C284.291 176.753 282.372 176.967 280.524 177.038C280.062 177.073 279.742 177.251 279.494 177.5ZM411.223 48.6127C411.117 48.7193 411.046 48.8615 410.939 49.0392C409.482 51.9886 407.99 54.9735 406.426 57.8875C406.035 58.6337 406.32 59.5576 407.03 59.913C407.777 60.3039 408.7 60.0196 409.056 59.3089C410.619 56.395 412.147 53.3745 413.604 50.354C413.995 49.6077 413.675 48.7193 412.929 48.3284C412.361 48.0441 411.685 48.1508 411.223 48.6127ZM131.88 329.165C131.56 329.485 131.418 329.911 131.453 330.373C131.524 331.226 132.271 331.83 133.088 331.723C135.113 331.546 137.174 331.475 139.2 331.51C140.373 331.546 141.545 331.652 142.718 331.83C143.535 331.936 144.317 331.368 144.424 330.551C144.53 329.733 143.962 328.952 143.144 328.845C141.865 328.703 140.586 328.561 139.307 328.561C137.174 328.49 135.007 328.596 132.839 328.774C132.484 328.774 132.128 328.916 131.88 329.165ZM219.901 248.18C219.51 248.57 219.332 249.175 219.545 249.743C219.83 250.525 220.683 250.951 221.464 250.667C224.343 249.636 227.257 248.642 230.135 247.682L230.881 247.433C231.663 247.149 232.089 246.296 231.805 245.514C231.521 244.733 230.668 244.306 229.886 244.59L229.14 244.839C226.226 245.834 223.348 246.865 220.434 247.86C220.221 247.931 220.043 248.037 219.901 248.18ZM401.842 66.2383C401.735 66.3449 401.664 66.4159 401.593 66.5581C399.959 69.4009 398.217 72.2793 396.512 75.1222C396.085 75.8329 396.299 76.7568 397.009 77.1832C397.72 77.6096 398.644 77.3964 399.07 76.6857C400.847 73.8429 402.553 70.929 404.223 68.0506C404.649 67.3399 404.365 66.416 403.654 65.9895C403.05 65.6697 402.304 65.7763 401.842 66.2383ZM315.917 152.305C315.562 152.66 315.384 153.193 315.491 153.726C316.06 156.214 316.486 158.772 316.628 161.402C316.379 161.58 316.131 161.757 315.846 161.971C315.171 162.433 314.994 163.392 315.527 164.067C315.989 164.671 316.77 164.885 317.41 164.529C317.659 164.707 317.943 164.778 318.298 164.778C319.116 164.742 319.791 164.067 319.755 163.25C319.755 163.108 319.755 163.037 319.755 162.895C319.862 162.788 320.004 162.717 320.111 162.61C321.994 161.224 323.842 159.803 325.69 158.382C326.329 157.884 326.436 156.925 325.974 156.249C325.476 155.61 324.517 155.503 323.842 155.965C322.385 157.067 320.964 158.204 319.471 159.27C319.258 157.138 318.867 155.041 318.405 153.016C318.227 152.198 317.374 151.701 316.593 151.914C316.379 151.985 316.095 152.127 315.917 152.305ZM298.683 172.454C298.256 172.88 298.114 173.591 298.399 174.159C298.754 174.941 299.642 175.261 300.388 174.87C303.302 173.52 306.216 171.956 309.308 170.002C310.019 169.575 310.232 168.651 309.805 167.941C309.379 167.23 308.455 167.017 307.744 167.443C304.724 169.326 301.917 170.855 299.145 172.134C298.932 172.205 298.789 172.347 298.683 172.454ZM111.518 359.69C111.162 360.045 110.949 360.614 111.127 361.147C112.086 364.522 113.366 367.792 115 370.706C115.391 371.452 116.315 371.736 117.026 371.31C117.772 370.919 118.056 369.995 117.63 369.284C116.137 366.512 114.929 363.527 114.041 360.365C113.828 359.583 112.975 359.086 112.193 359.299C111.909 359.37 111.696 359.512 111.518 359.69ZM391.359 83.2597C391.288 83.3308 391.217 83.4019 391.181 83.5085C389.369 86.2447 387.45 89.0165 385.567 91.6816C385.105 92.3568 385.247 93.2807 385.922 93.8137C386.597 94.2757 387.521 94.1336 388.054 93.4584C389.973 90.7577 391.892 87.986 393.74 85.2142C394.202 84.539 394.024 83.5795 393.314 83.1531C392.674 82.6556 391.857 82.7623 391.359 83.2597ZM379.775 99.5349C379.739 99.5705 379.668 99.6416 379.632 99.6771C377.642 102.307 375.581 104.936 373.485 107.459C372.987 108.099 373.058 109.023 373.698 109.591C374.338 110.089 375.297 110.053 375.83 109.378C377.927 106.784 380.023 104.119 382.013 101.489C382.511 100.85 382.404 99.8903 381.729 99.3573C381.16 98.9308 380.308 99.0019 379.775 99.5349ZM238.735 241.641C238.344 242.032 238.166 242.636 238.379 243.205C238.664 243.986 239.516 244.413 240.298 244.129C243.816 242.885 246.872 241.748 249.715 240.682C250.497 240.397 250.888 239.509 250.603 238.727C250.319 237.945 249.431 237.554 248.649 237.839C245.877 238.905 242.786 240.006 239.303 241.286C239.09 241.357 238.912 241.463 238.735 241.641ZM331.482 149.889C330.949 150.422 330.913 151.31 331.375 151.914C331.873 152.554 332.868 152.625 333.508 152.127C336.066 149.995 338.625 147.792 341.112 145.589C341.752 145.02 341.787 144.061 341.254 143.457C340.686 142.817 339.726 142.782 339.122 143.315C336.635 145.518 334.112 147.685 331.589 149.782C331.553 149.818 331.518 149.853 331.482 149.889ZM367.16 114.993C367.124 115.028 367.124 115.028 367.088 115.064C364.921 117.587 362.682 120.039 360.479 122.455C359.91 123.095 359.981 124.019 360.55 124.587C361.19 125.156 362.078 125.12 362.682 124.516C364.956 122.1 367.195 119.577 369.363 117.054C369.931 116.414 369.86 115.49 369.221 114.922C368.617 114.389 367.728 114.424 367.16 114.993ZM346.442 136.634C345.874 137.202 345.838 138.162 346.407 138.731C347.011 139.335 347.935 139.335 348.539 138.802C350.955 136.527 353.372 134.182 355.717 131.766C356.321 131.161 356.286 130.202 355.717 129.633C355.113 129.029 354.154 129.065 353.585 129.633C351.275 132.014 348.894 134.324 346.442 136.634ZM151.495 331.865C151.353 332.008 151.246 332.185 151.14 332.363C150.82 333.109 151.211 333.998 151.957 334.317C154.942 335.526 157.749 337.125 160.343 339.008C161.019 339.47 161.943 339.328 162.44 338.688C162.902 338.013 162.76 337.089 162.12 336.592C159.313 334.566 156.292 332.896 153.13 331.581C152.561 331.297 151.922 331.439 151.495 331.865ZM316.593 172.169C316.379 172.383 316.237 172.667 316.166 173.022C315.669 176.149 314.887 179.347 313.892 182.475C313.608 183.256 314.07 184.145 314.851 184.358C315.633 184.642 316.486 184.216 316.735 183.399C317.801 180.129 318.618 176.753 319.151 173.449C319.258 172.631 318.689 171.85 317.872 171.743C317.374 171.672 316.912 171.849 316.593 172.169ZM257.426 234.463C257 234.889 256.858 235.529 257.106 236.133C257.426 236.879 258.315 237.27 259.096 236.915L259.949 236.559C262.828 235.316 265.599 234.036 268.229 232.757C268.975 232.366 269.295 231.478 268.904 230.732C268.513 229.985 267.625 229.666 266.879 230.056C264.285 231.3 261.548 232.615 258.705 233.823L257.853 234.179C257.675 234.214 257.533 234.356 257.426 234.463ZM121.041 377.031C120.473 377.599 120.437 378.559 121.006 379.127C121.255 379.376 121.503 379.625 121.717 379.838C122.783 380.904 123.955 381.935 125.163 382.859C126.407 383.818 127.758 384.742 129.214 385.488C129.961 385.879 130.849 385.63 131.24 384.884C131.631 384.138 131.382 383.25 130.636 382.859C129.357 382.148 128.148 381.366 126.976 380.478C125.874 379.589 124.808 378.666 123.813 377.671C123.6 377.457 123.387 377.244 123.138 376.995C122.64 376.427 121.681 376.391 121.041 377.031ZM275.301 225.615C274.839 226.077 274.732 226.823 275.052 227.427C275.478 228.138 276.367 228.386 277.113 227.995C280.133 226.254 283.012 224.442 285.641 222.594C286.317 222.132 286.494 221.173 286.032 220.497C285.57 219.822 284.611 219.645 283.936 220.107C281.342 221.919 278.499 223.696 275.62 225.366C275.478 225.437 275.372 225.543 275.301 225.615ZM310.409 191.074C310.303 191.181 310.196 191.287 310.125 191.43C308.668 194.308 306.963 197.151 305.044 199.78C304.582 200.456 304.724 201.379 305.399 201.912C306.074 202.374 306.998 202.232 307.531 201.557C309.521 198.785 311.298 195.871 312.826 192.851C313.217 192.105 312.897 191.216 312.151 190.825C311.547 190.506 310.836 190.648 310.409 191.074ZM291.647 214.172C291.114 214.705 291.043 215.629 291.576 216.233C292.144 216.873 293.068 216.944 293.672 216.411C295.556 214.812 297.368 213.142 299.038 211.471C299.713 210.796 300.388 210.121 300.993 209.446C301.561 208.806 301.561 207.882 300.922 207.314C300.282 206.745 299.394 206.781 298.789 207.385C298.185 208.06 297.546 208.7 296.87 209.375C295.236 211.01 293.495 212.609 291.682 214.137C291.682 214.137 291.682 214.137 291.647 214.172ZM167.486 343.45C166.953 343.983 166.918 344.871 167.38 345.475C169.512 348.034 171.146 350.735 172.283 353.578C172.568 354.359 173.492 354.715 174.238 354.395C175.02 354.111 175.375 353.187 175.055 352.44C173.811 349.349 171.999 346.328 169.689 343.521C169.192 342.881 168.197 342.81 167.557 343.308C167.522 343.414 167.486 343.45 167.486 343.45ZM138.24 386.412C138.027 386.625 137.885 386.91 137.814 387.194C137.636 388.011 138.205 388.793 139.022 388.971C142.398 389.575 145.881 389.717 149.399 389.397C150.251 389.326 150.856 388.58 150.749 387.763C150.642 386.945 149.932 386.306 149.114 386.412C145.881 386.732 142.682 386.59 139.591 386.057C139.093 385.915 138.596 386.057 138.24 386.412ZM174.522 361.715C174.238 361.999 174.096 362.355 174.096 362.781C174.096 364.416 173.882 366.05 173.527 367.685C173.207 369.142 172.745 370.528 172.106 371.878C171.75 372.66 172.07 373.548 172.816 373.868C173.598 374.224 174.487 373.904 174.806 373.158C175.517 371.665 176.086 370.03 176.441 368.396C176.832 366.584 177.081 364.7 177.081 362.852C177.081 361.999 176.405 361.324 175.588 361.36C175.162 361.289 174.771 361.466 174.522 361.715ZM157.892 384.458C157.465 384.884 157.323 385.524 157.536 386.092C157.856 386.839 158.744 387.23 159.491 386.91C162.867 385.524 165.887 383.712 168.446 381.508C169.05 380.975 169.156 380.016 168.588 379.376C168.019 378.737 167.095 378.666 166.456 379.234C164.181 381.224 161.445 382.894 158.389 384.102C158.211 384.209 158.034 384.316 157.892 384.458Z" fill="#4691F2"/>
<path d="M417.549 34.896C417.407 35.0381 417.336 35.1802 417.229 35.3579C416.554 36.8859 415.879 38.414 415.203 39.942C414.884 40.6882 415.204 41.5766 415.985 41.932C416.732 42.2518 417.62 41.932 417.975 41.1502C418.65 39.6222 419.361 38.0586 420.036 36.5306C420.356 35.7844 420.001 34.8604 419.255 34.5406C418.65 34.2918 417.975 34.4695 417.549 34.896Z" fill="#4691F2"/>
</svg>
